<svg width="26" height="26" viewBox="0 0 26 26" fill="none" xmlns="http://www.w3.org/2000/svg">
<path d="M8.29388 20.2232C6.79475 20.2232 5.57953 21.4385 5.57953 22.9376C5.57953 24.4367 6.79481 25.652 8.29388 25.652C9.79301 25.652 11.0082 24.4367 11.0082 22.9376C11.0083 21.4385 9.79301 20.2232 8.29388 20.2232ZM8.29388 24.4456C7.46105 24.4456 6.78592 23.7705 6.78592 22.9377C6.78592 22.1048 7.46105 21.4297 8.29388 21.4297C9.12672 21.4297 9.80184 22.1048 9.80184 22.9377C9.8019 23.7705 9.12672 24.4456 8.29388 24.4456Z" fill="black"/>
<path d="M19.7546 20.2232C18.2555 20.2232 17.0403 21.4385 17.0403 22.9376C17.0403 24.4367 18.2556 25.652 19.7546 25.652C21.2537 25.652 22.469 24.4367 22.469 22.9376C22.469 21.4385 21.2538 20.2232 19.7546 20.2232ZM19.7546 24.4456C18.9218 24.4456 18.2467 23.7705 18.2467 22.9377C18.2467 22.1048 18.9218 21.4297 19.7546 21.4297C20.5875 21.4297 21.2626 22.1048 21.2626 22.9377C21.2627 23.7705 20.5875 24.4456 19.7546 24.4456Z" fill="black"/>
<path d="M25.8771 4.04145C25.7515 3.90423 25.5796 3.81833 25.3945 3.80015L5.76053 3.52871L5.21766 1.86991C4.83522 0.761022 3.79681 0.0124114 2.6239 0H0.603197C0.27005 0 0 0.270049 0 0.603195C0 0.936341 0.27005 1.20639 0.603197 1.20639H2.6239C3.27974 1.22088 3.85725 1.642 4.07159 2.262L7.90188 13.8132L7.60031 14.5068C7.26394 15.3742 7.36496 16.3505 7.87175 17.1307C8.37369 17.897 9.21813 18.3699 10.1338 18.3974H21.8659C22.1991 18.3974 22.4691 18.1274 22.4691 17.7942C22.4691 17.4611 22.1991 17.191 21.8659 17.191H10.1337C9.61663 17.1781 9.14066 16.9061 8.86698 16.4672C8.59635 16.0337 8.54076 15.4996 8.71619 15.0195L8.95749 14.4766L21.6548 13.1496C23.0495 12.996 24.1967 11.9816 24.52 10.6162L25.9677 4.55407C26.0329 4.3795 25.9982 4.18317 25.8771 4.04145ZM23.3437 10.3448C23.1479 11.2237 22.4016 11.8721 21.504 11.9433L8.95749 13.2401L6.15262 4.7351L24.6406 5.00654L23.3437 10.3448Z" fill="black"/>
</svg>
