<svg width="16" height="16" viewBox="0 0 16 16" fill="none" xmlns="http://www.w3.org/2000/svg">
<g clip-path="url(#clip0)">
<path d="M13.1896 4.51295H2.8104C2.69811 4.50341 2.58684 4.54051 2.50271 4.6155C2.41998 4.69497 2.38166 4.81 2.40015 4.92319L3.46678 14.2152C3.59187 15.2397 4.46544 16.0074 5.49748 15.9998H10.6666C11.7277 16.0149 12.6214 15.2105 12.7178 14.1537L13.5998 4.88217C13.6053 4.78272 13.568 4.68566 13.4973 4.6155C13.4132 4.54051 13.3019 4.50341 13.1896 4.51295ZM11.8973 14.1127C11.8329 14.7373 11.294 15.2043 10.6666 15.1793H5.49751C4.88134 15.2043 4.3517 14.7465 4.28727 14.1332L3.26167 5.33344H12.7383L11.8973 14.1127Z" fill="black"/>
<path d="M14.687 1.84633H10.4615V1.18991C10.4842 0.555912 9.98875 0.0235222 9.35475 0.000750383C9.33394 4.40957e-06 9.3131 -0.000191899 9.29229 0.000200718H6.70772C6.07341 -0.0115386 5.54973 0.493132 5.538 1.12745C5.5376 1.14825 5.5378 1.1691 5.53855 1.18991V1.84629H1.31299C1.08641 1.84629 0.902748 2.02996 0.902748 2.25654C0.902748 2.48312 1.08641 2.66678 1.31299 2.66678H14.687C14.9136 2.66678 15.0973 2.48312 15.0973 2.25654C15.0973 2.02996 14.9136 1.84633 14.687 1.84633ZM9.64097 1.18991V1.84629H6.359V1.18991C6.33587 1.01013 6.46289 0.845664 6.64266 0.822539C6.66422 0.819751 6.68601 0.819162 6.70768 0.820693H9.29225C9.47305 0.807894 9.63002 0.944054 9.64282 1.12489C9.64439 1.14657 9.64376 1.16836 9.64097 1.18991Z" fill="black"/>
</g>
<defs>
<clipPath id="clip0">
<rect width="16" height="16" fill="white"/>
</clipPath>
</defs>
</svg>
