<svg width="62" height="14" viewBox="0 0 62 14" fill="none" xmlns="http://www.w3.org/2000/svg">
<path d="M8.69238 8.64062C8.47559 8.64062 8.27051 8.59961 8.07715 8.51758C7.88965 8.43555 7.72559 8.32422 7.58496 8.18359C7.44434 8.04297 7.33301 7.87891 7.25098 7.69141C7.16895 7.49805 7.12793 7.29297 7.12793 7.07617C7.12793 6.85938 7.16895 6.65723 7.25098 6.46973C7.33301 6.27637 7.44434 6.10938 7.58496 5.96875C7.72559 5.82227 7.88965 5.70801 8.07715 5.62598C8.27051 5.53809 8.47559 5.49414 8.69238 5.49414C8.72168 5.49414 8.74805 5.49707 8.77148 5.50293C8.80078 5.50879 8.83008 5.51172 8.85938 5.51172C8.70703 5.39453 8.52832 5.30664 8.32324 5.24805C8.12402 5.18359 7.89258 5.15137 7.62891 5.15137C7.29492 5.15137 7.00488 5.22168 6.75879 5.3623C6.5127 5.49707 6.30176 5.66992 6.12598 5.88086C5.95605 6.08594 5.81836 6.31152 5.71289 6.55762C5.60742 6.79785 5.52246 7.02637 5.45801 7.24316C5.39941 7.4541 5.3584 7.63574 5.33496 7.78809C5.31738 7.94043 5.30859 8.02832 5.30859 8.05176L5.29102 11.9541C5.49609 11.9717 5.70117 11.998 5.90625 12.0332C6.11719 12.0684 6.33105 12.1035 6.54785 12.1387C6.65918 12.168 6.75 12.2266 6.82031 12.3145C6.89062 12.3965 6.92578 12.4932 6.92578 12.6045C6.92578 12.7334 6.87598 12.8418 6.77637 12.9297C6.67676 13.0117 6.57129 13.0527 6.45996 13.0527H6.37207C5.89746 12.9648 5.44629 12.8975 5.01855 12.8506C4.59082 12.8037 4.16602 12.7803 3.74414 12.7803C3.32227 12.7803 2.90039 12.8037 2.47852 12.8506C2.05664 12.8975 1.6084 12.9648 1.13379 13.0527H1.0459C0.911133 13.0527 0.802734 13.0088 0.720703 12.9209C0.638672 12.8271 0.597656 12.7217 0.597656 12.6045C0.597656 12.4932 0.629883 12.3965 0.694336 12.3145C0.758789 12.2266 0.84668 12.168 0.958008 12.1387C1.16309 12.1035 1.36816 12.0684 1.57324 12.0332C1.77832 11.998 1.98047 11.9717 2.17969 11.9541V5.40625C1.81055 5.38867 1.5 5.36523 1.24805 5.33594C0.996094 5.30664 0.855469 5.28613 0.826172 5.27441C0.708984 5.2627 0.612305 5.21582 0.536133 5.13379C0.46582 5.0459 0.430664 4.94336 0.430664 4.82617C0.430664 4.67969 0.480469 4.56543 0.580078 4.4834C0.685547 4.40137 0.791016 4.36035 0.896484 4.36035H0.958008C0.963867 4.36621 1.03125 4.37793 1.16016 4.39551C1.28906 4.40723 1.45605 4.42188 1.66113 4.43945C1.86621 4.45703 2.10059 4.47168 2.36426 4.4834C2.63379 4.49512 2.90625 4.50098 3.18164 4.50098C3.46289 4.50098 3.73828 4.49219 4.00781 4.47461C4.27734 4.45703 4.52637 4.4248 4.75488 4.37793C4.7666 4.36621 4.7959 4.36035 4.84277 4.36035C4.97754 4.36035 5.08887 4.41016 5.17676 4.50977C5.26465 4.60352 5.30859 4.70898 5.30859 4.82617V5.45898C5.56055 5.10742 5.87695 4.81738 6.25781 4.58887C6.64453 4.35449 7.10156 4.2373 7.62891 4.2373C8.02734 4.24902 8.39062 4.31934 8.71875 4.44824C9.04688 4.57129 9.32812 4.74414 9.5625 4.9668C9.80273 5.18359 9.9873 5.44727 10.1162 5.75781C10.251 6.0625 10.3184 6.40527 10.3184 6.78613C10.3184 7.02637 10.2803 7.25781 10.2041 7.48047C10.1279 7.70312 10.0195 7.90234 9.87891 8.07812C9.73828 8.24805 9.56543 8.38574 9.36035 8.49121C9.16113 8.59082 8.93848 8.64062 8.69238 8.64062ZM19.2041 8.35938V8.20996C19.2041 7.77051 19.1572 7.36328 19.0635 6.98828C18.9697 6.61328 18.8203 6.28223 18.6152 5.99512C18.416 5.70215 18.1582 5.46191 17.8418 5.27441C17.5254 5.08691 17.1445 4.96094 16.6992 4.89648C16.3887 4.93164 16.1191 5.0166 15.8906 5.15137C15.6621 5.28613 15.4658 5.45312 15.3018 5.65234C15.1436 5.8457 15.0117 6.06543 14.9062 6.31152C14.8008 6.55762 14.7158 6.8125 14.6514 7.07617C14.5928 7.33398 14.5488 7.59473 14.5195 7.8584C14.4902 8.11621 14.4727 8.35938 14.4668 8.58789C14.5605 8.61719 14.6777 8.64941 14.8184 8.68457C14.9648 8.71973 15.1289 8.75488 15.3105 8.79004C15.4922 8.81934 15.6885 8.8457 15.8994 8.86914C16.1162 8.88672 16.3418 8.89551 16.5762 8.89551C17.0742 8.89551 17.54 8.84863 17.9736 8.75488C18.4131 8.66113 18.8232 8.5293 19.2041 8.35938ZM20.1006 8.70215C20.083 8.85449 20.001 8.98633 19.8545 9.09766C19.708 9.20898 19.5234 9.30859 19.3008 9.39648C19.0781 9.47852 18.832 9.54883 18.5625 9.60742C18.2988 9.66016 18.0381 9.7041 17.7803 9.73926C17.5225 9.77441 17.2852 9.80078 17.0684 9.81836C16.8516 9.83008 16.6816 9.83594 16.5586 9.83594C16.1309 9.83594 15.7354 9.80664 15.3721 9.74805C15.0146 9.68945 14.7188 9.62793 14.4844 9.56348C14.5195 9.92676 14.5869 10.2842 14.6865 10.6357C14.7861 10.9873 14.9297 11.3037 15.1172 11.585C15.3047 11.8604 15.5391 12.0859 15.8203 12.2617C16.1016 12.4316 16.4414 12.5166 16.8398 12.5166C16.9863 12.5166 17.1533 12.499 17.3408 12.4639C17.5283 12.4229 17.7129 12.3672 17.8945 12.2969C18.0762 12.2207 18.2432 12.1328 18.3955 12.0332C18.5479 11.9277 18.668 11.8105 18.7559 11.6816C18.8555 11.5645 18.9756 11.5059 19.1162 11.5059C19.2393 11.5059 19.3477 11.5557 19.4414 11.6553C19.5352 11.749 19.582 11.8545 19.582 11.9717C19.582 12.0947 19.5439 12.1914 19.4678 12.2617C19.3271 12.4785 19.1309 12.6631 18.8789 12.8154C18.627 12.9678 18.3545 13.0908 18.0615 13.1846C17.7686 13.2842 17.4727 13.3545 17.1738 13.3955C16.875 13.4424 16.6025 13.4658 16.3564 13.4658C15.6533 13.4658 15 13.3398 14.3965 13.0879C13.793 12.8418 13.2686 12.502 12.8232 12.0684C12.3779 11.6348 12.0264 11.125 11.7686 10.5391C11.5166 9.95312 11.3906 9.32031 11.3906 8.64062C11.3906 7.89648 11.502 7.23438 11.7246 6.6543C11.9473 6.06836 12.2637 5.57617 12.6738 5.17773C13.084 4.77344 13.582 4.46875 14.168 4.26367C14.7539 4.05273 15.4131 3.94727 16.1455 3.94727C16.8369 3.97656 17.4316 4.09375 17.9297 4.29883C18.4336 4.50391 18.8467 4.78809 19.1689 5.15137C19.4912 5.51465 19.7285 5.9541 19.8809 6.46973C20.0391 6.97949 20.1182 7.55371 20.1182 8.19238C20.1182 8.33887 20.1152 8.45605 20.1094 8.54395C20.1035 8.62598 20.1006 8.67871 20.1006 8.70215ZM32.0977 4.29004C32.0977 4.39551 32.0654 4.48926 32.001 4.57129C31.9365 4.65332 31.8486 4.70898 31.7373 4.73828C31.5381 4.78516 31.3506 4.82324 31.1748 4.85254C30.999 4.87598 30.8262 4.89648 30.6562 4.91406C30.5156 5.54688 30.3135 6.22363 30.0498 6.94434C29.792 7.65918 29.4902 8.38867 29.1445 9.13281C28.7988 9.87109 28.418 10.6035 28.002 11.3301C27.5918 12.0566 27.1582 12.7451 26.7012 13.3955C26.666 13.4482 26.6162 13.4951 26.5518 13.5361C26.4932 13.5771 26.4287 13.5977 26.3584 13.5977C26.2764 13.5977 26.2061 13.583 26.1475 13.5537C26.0947 13.5303 26.0449 13.4951 25.998 13.4482C25.6289 13.0674 25.2393 12.6074 24.8291 12.0684C24.4248 11.5293 24.0293 10.9082 23.6426 10.2051C23.2617 9.49609 22.9102 8.69629 22.5879 7.80566C22.2715 6.91504 22.0166 5.92773 21.8232 4.84375C21.6943 4.82617 21.5654 4.81152 21.4365 4.7998C21.3135 4.78809 21.1904 4.76758 21.0674 4.73828C20.9502 4.7207 20.8535 4.6709 20.7773 4.58887C20.707 4.50684 20.6719 4.40723 20.6719 4.29004C20.6719 4.1377 20.7246 4.02344 20.8301 3.94727C20.9355 3.86523 21.0381 3.82422 21.1377 3.82422C21.1494 3.82422 21.1582 3.82715 21.1641 3.83301C21.1758 3.83887 21.1904 3.8418 21.208 3.8418C21.5889 3.89453 21.958 3.93848 22.3154 3.97363C22.6787 4.00293 23.042 4.01758 23.4053 4.01758C23.7686 4.01758 24.123 4.00293 24.4688 3.97363C24.8203 3.93848 25.1689 3.89453 25.5146 3.8418C25.5322 3.8418 25.5439 3.83887 25.5498 3.83301C25.5615 3.82715 25.5732 3.82422 25.585 3.82422C25.7197 3.82422 25.8311 3.87109 25.9189 3.96484C26.0068 4.05273 26.0508 4.16113 26.0508 4.29004C26.0508 4.39551 26.0156 4.49219 25.9453 4.58008C25.875 4.66797 25.7842 4.7207 25.6729 4.73828C25.4209 4.79102 25.1631 4.82617 24.8994 4.84375C24.9521 5.10742 25.043 5.45898 25.1719 5.89844C25.3008 6.33789 25.4736 6.83301 25.6904 7.38379C25.8193 7.71191 25.96 8.03125 26.1123 8.3418C26.2705 8.65234 26.4258 8.94531 26.5781 9.2207C26.7363 9.49023 26.8857 9.73633 27.0264 9.95898C27.1729 10.1816 27.2988 10.3721 27.4043 10.5303C27.668 10.0557 27.917 9.5752 28.1514 9.08887C28.3857 8.59668 28.5996 8.11328 28.793 7.63867C28.9922 7.1582 29.168 6.68945 29.3203 6.23242C29.4727 5.77539 29.6016 5.33594 29.707 4.91406C29.5371 4.89648 29.3613 4.87598 29.1797 4.85254C28.998 4.82324 28.8076 4.78516 28.6084 4.73828C28.4971 4.7207 28.4062 4.66797 28.3359 4.58008C28.2656 4.49219 28.2305 4.39551 28.2305 4.29004C28.2305 4.15527 28.2803 4.04395 28.3799 3.95605C28.4854 3.86816 28.5908 3.82422 28.6963 3.82422C28.7139 3.82422 28.7285 3.82715 28.7402 3.83301C28.752 3.83887 28.7666 3.8418 28.7842 3.8418C29.0596 3.89453 29.3086 3.93555 29.5312 3.96484C29.7539 3.98828 29.9736 4 30.1904 4C30.4072 4 30.6211 3.98828 30.832 3.96484C31.0488 3.93555 31.2803 3.89453 31.5264 3.8418C31.5439 3.8418 31.5615 3.83887 31.5791 3.83301C31.5967 3.82715 31.6143 3.82422 31.6318 3.82422C31.7607 3.82422 31.8691 3.87402 31.957 3.97363C32.0508 4.06738 32.0977 4.17285 32.0977 4.29004ZM44.0332 4.29004C44.0332 4.39551 43.998 4.49219 43.9277 4.58008C43.8633 4.66797 43.7725 4.7207 43.6553 4.73828C43.4502 4.78516 43.2451 4.82324 43.04 4.85254C42.835 4.87598 42.6328 4.90234 42.4336 4.93164L42.293 12.209C42.498 12.209 42.7061 12.2148 42.917 12.2266C43.1338 12.2324 43.3447 12.25 43.5498 12.2793C43.6787 12.291 43.7783 12.3438 43.8486 12.4375C43.9248 12.5254 43.9629 12.6221 43.9629 12.7275C43.9629 12.874 43.9131 12.9883 43.8135 13.0703C43.7197 13.1582 43.6201 13.2021 43.5146 13.2021H43.4619C43.2217 13.1729 42.9844 13.1523 42.75 13.1406C42.5215 13.1289 42.2959 13.123 42.0732 13.123C41.6689 13.123 41.2676 13.1436 40.8691 13.1846C40.4766 13.2256 40.0869 13.29 39.7002 13.3779H39.6035C39.4805 13.3779 39.3721 13.3311 39.2783 13.2373C39.1846 13.1494 39.1377 13.0469 39.1377 12.9297V12.9121L39.1904 11.3037C38.8213 11.9775 38.3906 12.4932 37.8984 12.8506C37.4062 13.2021 36.8584 13.3779 36.2549 13.3779C35.874 13.3779 35.5371 13.3164 35.2441 13.1934C34.957 13.0703 34.7021 12.9062 34.4795 12.7012C34.2627 12.4902 34.0781 12.25 33.9258 11.9805C33.7793 11.7051 33.6592 11.418 33.5654 11.1191C33.4775 10.8145 33.4131 10.5068 33.3721 10.1963C33.3311 9.88574 33.3105 9.58984 33.3105 9.30859C33.3105 8.54102 33.3838 7.78809 33.5303 7.0498C33.6826 6.31152 33.9082 5.61426 34.207 4.95801L32.625 4.91406C32.4961 4.90234 32.3877 4.85547 32.2998 4.77344C32.2178 4.68555 32.1768 4.57715 32.1768 4.44824C32.1768 4.33105 32.2207 4.22852 32.3086 4.14062C32.3965 4.04688 32.5078 4 32.6426 4L34.9629 4.05273C35.0918 4.07031 35.1973 4.12305 35.2793 4.21094C35.3672 4.29297 35.4111 4.39551 35.4111 4.51855C35.4111 4.56543 35.4023 4.60938 35.3848 4.65039C35.373 4.68555 35.3584 4.7207 35.3408 4.75586C35.2295 4.86719 35.124 5.03418 35.0244 5.25684C34.9248 5.47949 34.834 5.73438 34.752 6.02148C34.6699 6.30273 34.5967 6.60449 34.5322 6.92676C34.4678 7.24316 34.4121 7.55371 34.3652 7.8584C34.3184 8.15723 34.2832 8.43555 34.2598 8.69336C34.2363 8.95117 34.2246 9.16211 34.2246 9.32617C34.2246 9.68945 34.2539 10.0586 34.3125 10.4336C34.377 10.8027 34.4854 11.1396 34.6377 11.4443C34.79 11.7432 34.9951 11.9893 35.2529 12.1826C35.5107 12.3701 35.8389 12.4639 36.2373 12.4639C36.5947 12.4639 36.9346 12.3613 37.2568 12.1562C37.5791 11.9453 37.8691 11.6465 38.127 11.2598C38.3906 10.873 38.6191 10.4014 38.8125 9.84473C39.0117 9.28809 39.1699 8.66113 39.2871 7.96387L39.3926 4.43066C39.3926 4.30176 39.4424 4.19922 39.542 4.12305C39.6416 4.04102 39.7471 4 39.8584 4H39.9111C40.1104 4.0293 40.3125 4.0498 40.5176 4.06152C40.7227 4.06738 40.9365 4.07031 41.1592 4.07031C41.5166 4.07031 41.8887 4.05273 42.2754 4.01758C42.668 3.98242 43.0752 3.92383 43.4971 3.8418C43.5088 3.8418 43.5205 3.83887 43.5322 3.83301C43.5439 3.82715 43.5557 3.82422 43.5674 3.82422C43.7021 3.82422 43.8135 3.87402 43.9014 3.97363C43.9893 4.06738 44.0332 4.17285 44.0332 4.29004ZM52.1279 4.44824C52.1279 4.56543 52.0869 4.6709 52.0049 4.76465C51.9287 4.85254 51.832 4.90234 51.7148 4.91406C51.334 4.94336 50.9561 4.96973 50.5811 4.99316C50.2061 5.0166 49.8281 5.03418 49.4473 5.0459V11.1982C49.4473 11.3154 49.4707 11.4238 49.5176 11.5234C49.5703 11.623 49.6348 11.708 49.7109 11.7783C49.793 11.8486 49.8838 11.9043 49.9834 11.9453C50.083 11.9863 50.1855 12.0068 50.291 12.0068C50.4492 12.0068 50.5781 11.9658 50.6777 11.8838C50.7832 11.7959 50.8711 11.6904 50.9414 11.5674C51.0117 11.4385 51.0674 11.3037 51.1084 11.1631C51.1553 11.0225 51.1934 10.8965 51.2227 10.7852C51.2402 10.6797 51.293 10.5947 51.3809 10.5303C51.4688 10.46 51.5654 10.4248 51.6709 10.4248C51.8057 10.4248 51.9141 10.4775 51.9961 10.583C52.084 10.6826 52.1279 10.7852 52.1279 10.8906V10.9873C51.958 11.7666 51.624 12.3701 51.126 12.7979C50.6279 13.2197 50.0127 13.4307 49.2803 13.4307C48.9463 13.4307 48.6035 13.3867 48.252 13.2988C47.9004 13.2109 47.5811 13.0469 47.2939 12.8066C47.0127 12.5664 46.7812 12.2354 46.5996 11.8135C46.418 11.3857 46.3271 10.832 46.3271 10.1523V5.02832C46.0635 5.01074 45.7969 4.99316 45.5273 4.97559C45.2637 4.95801 44.9971 4.9375 44.7275 4.91406C44.6104 4.89648 44.5107 4.84375 44.4287 4.75586C44.3525 4.66797 44.3145 4.56543 44.3145 4.44824C44.3145 4.31348 44.3643 4.20508 44.4639 4.12305C44.5693 4.04102 44.6748 4 44.7803 4H44.8154C45.0732 4.01758 45.3252 4.03516 45.5713 4.05273C45.8232 4.07031 46.0752 4.08789 46.3271 4.10547V1.11719C46.3271 1.01758 46.3594 0.926758 46.4238 0.844727C46.4883 0.756836 46.5703 0.698242 46.6699 0.668945L48.8672 0.0800781C48.8848 0.0683594 48.9053 0.0625 48.9287 0.0625C48.9521 0.0566406 48.9727 0.0537109 48.9902 0.0537109C49.125 0.0537109 49.2334 0.103516 49.3154 0.203125C49.4033 0.302734 49.4473 0.411133 49.4473 0.52832V4.12305C49.8047 4.11133 50.165 4.09668 50.5283 4.0791C50.8975 4.05566 51.2666 4.0293 51.6357 4H51.6709C51.7998 4 51.9082 4.04688 51.9961 4.14062C52.084 4.22852 52.1279 4.33105 52.1279 4.44824ZM61.5146 12.042C61.5146 12.2295 61.4795 12.4053 61.4092 12.5693C61.3389 12.7334 61.2422 12.877 61.1191 13C61.002 13.123 60.8613 13.2197 60.6973 13.29C60.5332 13.3604 60.3574 13.3955 60.1699 13.3955C59.9824 13.3955 59.8066 13.3604 59.6426 13.29C59.4785 13.2197 59.335 13.123 59.2119 13C59.0889 12.877 58.9922 12.7334 58.9219 12.5693C58.8516 12.4053 58.8164 12.2295 58.8164 12.042C58.8164 11.8604 58.8516 11.6875 58.9219 11.5234C58.9922 11.3594 59.0889 11.2188 59.2119 11.1016C59.335 10.9844 59.4785 10.8906 59.6426 10.8203C59.8066 10.75 59.9824 10.7148 60.1699 10.7148C60.3574 10.7148 60.5332 10.75 60.6973 10.8203C60.8613 10.8906 61.002 10.9844 61.1191 11.1016C61.2422 11.2188 61.3389 11.3594 61.4092 11.5234C61.4795 11.6875 61.5146 11.8604 61.5146 12.042Z" fill="black"/>
</svg>
