<svg width="64" height="20" viewBox="0 0 64 20" fill="none" xmlns="http://www.w3.org/2000/svg">
<path d="M27.6992 16.9688L33.9453 5.33203H34.6367L27.8984 18H27.2773L24.4531 5.30859H25.1094L27.6992 16.9688ZM43.3203 18L43.7188 15.9492C43.1641 16.7148 42.4922 17.2891 41.7031 17.6719C40.9141 18.0469 40.0469 18.2344 39.1016 18.2344C38.1172 18.2344 37.3359 17.9727 36.7578 17.4492C36.1875 16.9258 35.8555 16.1797 35.7617 15.2109C35.707 14.5938 35.7344 13.957 35.8438 13.3008L37.2148 5.32031H37.8477L36.4531 13.3945C36.3672 13.9258 36.3398 14.4414 36.3711 14.9414C36.4102 15.7852 36.6641 16.4414 37.1328 16.9102C37.6016 17.3711 38.25 17.6016 39.0781 17.6016C40.2188 17.6016 41.2461 17.293 42.1602 16.6758C43.0742 16.0508 43.6758 15.2383 43.9648 14.2383L45.5 5.32031H46.1445L43.9648 18H43.3203ZM52.1211 1.89844L51.5352 5.32031H54.3125L54.2305 5.96484H51.418L49.8125 15.2461L49.7656 15.8906C49.7422 16.4219 49.8516 16.8398 50.0938 17.1445C50.3359 17.4414 50.7031 17.5938 51.1953 17.6016C51.4141 17.6016 51.8398 17.5664 52.4727 17.4961L52.4961 18.0938C52.1367 18.1875 51.7109 18.2344 51.2188 18.2344C49.8906 18.2344 49.1992 17.5508 49.1445 16.1836C49.1289 15.7852 49.1562 15.3789 49.2266 14.9648L50.7734 5.96484H48.5117L48.6055 5.32031H50.8906L51.4766 1.89844H52.1211ZM60.957 17.4023C60.9805 17.2461 61.0625 17.1016 61.2031 16.9688C61.3516 16.8359 61.5078 16.7695 61.6719 16.7695C61.8516 16.7695 61.9961 16.8398 62.1055 16.9805C62.2148 17.1211 62.2578 17.2773 62.2344 17.4492C62.2109 17.6055 62.125 17.75 61.9766 17.8828C61.8281 18.0078 61.6719 18.0703 61.5078 18.0703C61.3281 18.0625 61.1836 17.9922 61.0742 17.8594C60.9648 17.7266 60.9258 17.5742 60.957 17.4023Z" fill="black"/>
<path d="M10.7188 8.49609L10.5488 9.48155L11.577 9.65882L11.7105 8.62407L10.7188 8.49609ZM9.60547 8.37891L9.57899 9.37856L9.59223 9.37891H9.60547V8.37891ZM6.80469 9.70312L6.00551 9.10203L5.86156 9.29342L5.81992 9.52926L6.80469 9.70312ZM5.33984 18V19H6.17876L6.32461 18.1739L5.33984 18ZM2.03516 18L1.04992 17.8288L0.846421 19H2.03516V18ZM4.23828 5.32031L4.23451 4.32032L3.3965 4.32348L3.25304 5.14913L4.23828 5.32031ZM7.34375 5.30859L8.3249 5.50185L8.56084 4.30399L7.33998 4.3086L7.34375 5.30859ZM7.03906 6.85547L6.05791 6.66221L7.87111 7.41017L7.03906 6.85547ZM11.1406 5.22656L12.1324 5.35453L12.2463 4.47219L11.3832 4.25642L11.1406 5.22656ZM10.8887 7.51063C10.4081 7.42777 9.97461 7.37891 9.60547 7.37891V9.37891C9.81446 9.37891 10.1232 9.40816 10.5488 9.48155L10.8887 7.51063ZM9.63195 7.37926C8.14096 7.33976 6.89475 7.91975 6.00551 9.10203L7.60387 10.3042C8.08963 9.65837 8.7106 9.35555 9.57899 9.37856L9.63195 7.37926ZM5.81992 9.52926L4.35507 17.8261L6.32461 18.1739L7.78946 9.87699L5.81992 9.52926ZM5.33984 17H2.03516V19H5.33984V17ZM3.02039 18.1712L5.22352 5.4915L3.25304 5.14913L1.04992 17.8288L3.02039 18.1712ZM4.24205 6.32031L7.34752 6.30859L7.33998 4.3086L4.23451 4.32032L4.24205 6.32031ZM6.3626 5.11534L6.05791 6.66221L8.02021 7.04873L8.3249 5.50185L6.3626 5.11534ZM7.87111 7.41017C8.53032 6.42136 9.23252 6.0625 9.99219 6.0625V4.0625C8.4081 4.0625 7.14155 4.89896 6.20701 6.30077L7.87111 7.41017ZM9.99219 6.0625C10.2145 6.0625 10.5126 6.10034 10.8981 6.1967L11.3832 4.25642C10.8936 4.13404 10.4261 4.0625 9.99219 4.0625V6.0625ZM10.1488 5.09859L9.72697 8.36812L11.7105 8.62407L12.1324 5.35453L10.1488 5.09859ZM16.4492 18.2344L16.4644 17.2345L16.4563 17.2344L16.4492 18.2344ZM13.4961 17.4258L12.9612 18.2708L12.9703 18.2764L13.4961 17.4258ZM11.5859 15.2227L10.674 15.633L10.6753 15.6359L11.5859 15.2227ZM11.0938 12.1289L12.0903 12.212L12.0909 12.2037L11.0938 12.1289ZM11.1289 11.6602L10.1334 11.5656L10.1324 11.5755L10.1317 11.5854L11.1289 11.6602ZM14.5273 5.88281L15.0334 6.74531L15.0387 6.74218L14.5273 5.88281ZM17.668 5.08594L17.6408 6.0856L17.6488 6.08575L17.668 5.08594ZM21.3711 6.89062L20.557 7.47137L20.5614 7.4775L21.3711 6.89062ZM22.332 11.3203L23.3237 11.4493L23.3247 11.4412L23.3256 11.4331L22.332 11.3203ZM22.1445 12.7617V13.7617H23.0229L23.1362 12.8907L22.1445 12.7617ZM14.375 12.7617V11.7617H13.4124L13.3757 12.7237L14.375 12.7617ZM16.7305 15.4922L16.7564 14.4925L16.7515 14.4924L16.7305 15.4922ZM19.8945 14.0977L20.673 13.47L19.9535 12.5776L19.167 13.4116L19.8945 14.0977ZM21.4062 15.9727L22.2397 16.5253L22.6443 15.915L22.1847 15.345L21.4062 15.9727ZM19.3438 17.6602L19.7492 18.5743L19.7558 18.5713L19.3438 17.6602ZM17.5039 7.81641L17.4783 8.81612L17.4872 8.81627L17.5039 7.81641ZM15.875 8.39062L15.2336 7.62341L15.2274 7.62869L15.875 8.39062ZM14.6094 10.4648L13.6749 10.1088L13.1583 11.4648H14.6094V10.4648ZM19.1562 10.4648V11.4648H19.9518L20.1306 10.6897L19.1562 10.4648ZM19.2266 10.1602L20.201 10.385L20.2097 10.347L20.2155 10.3085L19.2266 10.1602ZM19.2383 9.26953L20.2288 9.13196L20.2265 9.11575L20.2237 9.09962L19.2383 9.26953ZM18.6641 8.21484L18.0181 8.97823L18.0239 8.98312L18.0297 8.98792L18.6641 8.21484ZM16.4563 17.2344C15.5117 17.2277 14.7103 17.0007 14.0219 16.5752L12.9703 18.2764C14.0007 18.9134 15.168 19.2254 16.4422 19.2344L16.4563 17.2344ZM14.031 16.5808C13.3463 16.1474 12.839 15.5641 12.4966 14.8094L10.6753 15.6359C11.1766 16.7406 11.9428 17.626 12.9612 18.2707L14.031 16.5808ZM12.4979 14.8123C12.1522 14.0443 12.0092 13.1849 12.0903 12.212L10.0972 12.0459C9.99079 13.3229 10.1759 14.5261 10.674 15.633L12.4979 14.8123ZM12.0909 12.2037L12.1261 11.7349L10.1317 11.5854L10.0966 12.0541L12.0909 12.2037ZM12.1244 11.7547C12.2285 10.659 12.5452 9.66669 13.0708 8.76559L11.3433 7.75785C10.6658 8.91925 10.2637 10.1926 10.1334 11.5656L12.1244 11.7547ZM13.0708 8.76559C13.5938 7.86899 14.2492 7.20549 15.0334 6.7453L14.0213 5.02033C12.9149 5.66951 12.0234 6.59195 11.3433 7.75785L13.0708 8.76559ZM15.0387 6.74218C15.814 6.28087 16.6727 6.05923 17.6408 6.08557L17.6952 4.08631C16.3664 4.05015 15.1314 4.35975 14.016 5.02345L15.0387 6.74218ZM17.6488 6.08575C19.014 6.11188 19.9314 6.59436 20.557 7.47135L22.1852 6.3099C21.1389 4.84314 19.5875 4.12249 17.6871 4.08612L17.6488 6.08575ZM20.5614 7.4775C21.2243 8.39198 21.5208 9.60127 21.3384 11.2075L23.3256 11.4331C23.5495 9.46123 23.2054 7.71739 22.1808 6.30375L20.5614 7.4775ZM21.3404 11.1913L21.1529 12.6327L23.1362 12.8907L23.3237 11.4493L21.3404 11.1913ZM22.1445 11.7617H14.375V13.7617H22.1445V11.7617ZM13.3757 12.7237C13.3374 13.7305 13.5819 14.6579 14.2193 15.3881L15.726 14.0728C15.5041 13.8186 15.3501 13.4336 15.3743 12.7998L13.3757 12.7237ZM14.2193 15.3881C14.8602 16.1222 15.7282 16.4713 16.7094 16.492L16.7515 14.4924C16.2483 14.4818 15.9445 14.3231 15.726 14.0728L14.2193 15.3881ZM16.7045 16.4918C18.2216 16.5313 19.5419 15.929 20.622 14.7838L19.167 13.4116C18.4346 14.1882 17.6456 14.5156 16.7564 14.4925L16.7045 16.4918ZM19.116 14.7253L20.6278 16.6003L22.1847 15.345L20.673 13.47L19.116 14.7253ZM20.5728 15.42C20.2145 15.9605 19.6839 16.4089 18.9317 16.749L19.7558 18.5713C20.8005 18.099 21.6449 17.4223 22.2397 16.5253L20.5728 15.42ZM18.9383 16.746C18.1788 17.0829 17.3582 17.248 16.4644 17.2345L16.4341 19.2343C17.6027 19.252 18.7119 19.0343 19.7492 18.5743L18.9383 16.746ZM17.5295 6.81674C16.6719 6.79474 15.8929 7.0722 15.2336 7.62344L16.5164 9.15781C16.8102 8.91217 17.1172 8.80682 17.4783 8.81608L17.5295 6.81674ZM15.2274 7.62869C14.5691 8.18821 14.0725 9.06499 13.6749 10.1088L15.5439 10.8208C15.8962 9.89595 16.2434 9.38991 16.5226 9.15256L15.2274 7.62869ZM14.6094 11.4648H19.1562V9.46484H14.6094V11.4648ZM20.1306 10.6897L20.201 10.385L18.2522 9.9353L18.1819 10.24L20.1306 10.6897ZM20.2155 10.3085C20.275 9.91181 20.2824 9.51812 20.2288 9.13196L18.2478 9.4071C18.2723 9.58344 18.2719 9.7835 18.2376 10.0118L20.2155 10.3085ZM20.2237 9.09962C20.112 8.45149 19.819 7.86898 19.2984 7.44177L18.0297 8.98792C18.1185 9.06071 18.2083 9.18133 18.2528 9.43944L20.2237 9.09962ZM19.31 7.45146C18.7994 7.01942 18.1779 6.8275 17.5206 6.81655L17.4872 8.81627C17.7674 8.82094 17.9193 8.89464 18.0181 8.97823L19.31 7.45146ZM27.6992 16.9688L26.723 17.1856L27.3069 19.8142L28.5803 17.4417L27.6992 16.9688ZM33.9453 5.33203V4.33203H33.3471L33.0642 4.8591L33.9453 5.33203ZM34.6367 5.33203L35.5196 5.80164L36.3013 4.33203H34.6367V5.33203ZM27.8984 18V19H28.4992L28.7813 18.4696L27.8984 18ZM27.2773 18L26.3012 18.2172L26.4754 19H27.2773V18ZM24.4531 5.30859V4.30859H23.2061L23.477 5.52581L24.4531 5.30859ZM25.1094 5.30859L26.0856 5.09177L25.9116 4.30859H25.1094V5.30859ZM28.5803 17.4417L34.8264 5.80497L33.0642 4.8591L26.8181 16.4958L28.5803 17.4417ZM33.9453 6.33203H34.6367V4.33203H33.9453V6.33203ZM33.7538 4.86242L27.0156 17.5304L28.7813 18.4696L35.5196 5.80164L33.7538 4.86242ZM27.8984 17H27.2773V19H27.8984V17ZM28.2535 17.7828L25.4292 5.09138L23.477 5.52581L26.3012 18.2172L28.2535 17.7828ZM24.4531 6.30859H25.1094V4.30859H24.4531V6.30859ZM24.1332 5.52542L26.723 17.1856L28.6754 16.7519L26.0856 5.09177L24.1332 5.52542ZM43.3203 18L42.3387 17.8093L42.1073 19H43.3203V18ZM43.7188 15.9492L44.7004 16.1399L42.9089 15.3625L43.7188 15.9492ZM41.7031 17.6719L42.1324 18.5751L42.1396 18.5716L41.7031 17.6719ZM36.7578 17.4492L36.0816 18.186L36.0866 18.1905L36.7578 17.4492ZM35.7617 15.2109L34.7656 15.2992L34.7664 15.3073L35.7617 15.2109ZM35.8438 13.3008L34.8582 13.1315L34.8574 13.1364L35.8438 13.3008ZM37.2148 5.32031V4.32031H36.372L36.2293 5.15099L37.2148 5.32031ZM37.8477 5.32031L38.8331 5.49051L39.0352 4.32031H37.8477V5.32031ZM36.4531 13.3945L35.4677 13.2243L35.466 13.2348L36.4531 13.3945ZM36.3711 14.9414L37.37 14.8952L37.3697 14.8871L37.3691 14.879L36.3711 14.9414ZM37.1328 16.9102L36.4257 17.6173L36.4317 17.6232L37.1328 16.9102ZM42.1602 16.6758L42.7198 17.5046L42.7246 17.5013L42.1602 16.6758ZM43.9648 14.2383L44.9255 14.516L44.9409 14.4626L44.9503 14.4079L43.9648 14.2383ZM45.5 5.32031V4.32031H44.6574L44.5145 5.15067L45.5 5.32031ZM46.1445 5.32031L47.1301 5.48973L47.3311 4.32031H46.1445V5.32031ZM43.9648 18V19H44.8076L44.9504 18.1694L43.9648 18ZM44.302 18.1907L44.7004 16.1399L42.7371 15.7585L42.3387 17.8093L44.302 18.1907ZM42.9089 15.3625C42.4432 16.0053 41.8959 16.4669 41.2666 16.7722L42.1396 18.5716C43.0885 18.1113 43.8849 17.4244 44.5286 16.5359L42.9089 15.3625ZM41.2739 16.7687C40.6297 17.0748 39.9108 17.2344 39.1016 17.2344V19.2344C40.183 19.2344 41.1984 19.0189 42.1324 18.5751L41.2739 16.7687ZM39.1016 17.2344C38.2978 17.2344 37.7787 17.0245 37.429 16.7079L36.0866 18.1905C36.8932 18.9208 37.9366 19.2344 39.1016 19.2344V17.2344ZM37.434 16.7125C37.0887 16.3956 36.8334 15.9034 36.7571 15.1146L34.7664 15.3073C34.8775 16.456 35.2863 17.456 36.0816 18.186L37.434 16.7125ZM36.7578 15.1227C36.7111 14.5957 36.7337 14.0441 36.8301 13.4652L34.8574 13.1364C34.7351 13.87 34.7029 14.5918 34.7656 15.2992L36.7578 15.1227ZM36.8293 13.4701L38.2004 5.48964L36.2293 5.15099L34.8582 13.1315L36.8293 13.4701ZM37.2148 6.32031H37.8477V4.32031H37.2148V6.32031ZM36.8622 5.15012L35.4677 13.2243L37.4385 13.5647L38.8331 5.49051L36.8622 5.15012ZM35.466 13.2348C35.369 13.8341 35.3368 14.4243 35.373 15.0038L37.3691 14.879C37.3429 14.4585 37.3654 14.0175 37.4403 13.5542L35.466 13.2348ZM35.3722 14.9877C35.4195 16.0097 35.7364 16.928 36.4257 17.6173L37.8399 16.203C37.5917 15.9548 37.4008 15.5606 37.37 14.8952L35.3722 14.9877ZM36.4317 17.6232C37.1329 18.3128 38.0593 18.6016 39.0781 18.6016V16.6016C38.4407 16.6016 38.0702 16.4294 37.834 16.1971L36.4317 17.6232ZM39.0781 18.6016C40.411 18.6016 41.6345 18.2373 42.7197 17.5045L41.6006 15.847C40.8577 16.3486 40.0265 16.6016 39.0781 16.6016V18.6016ZM42.7246 17.5013C43.8171 16.7542 44.5677 15.7539 44.9255 14.516L43.0042 13.9606C42.7839 14.7227 42.3313 15.3473 41.5957 15.8503L42.7246 17.5013ZM44.9503 14.4079L46.4855 5.48996L44.5145 5.15067L42.9793 14.0686L44.9503 14.4079ZM45.5 6.32031H46.1445V4.32031H45.5V6.32031ZM45.159 5.15089L42.9793 17.8306L44.9504 18.1694L47.1301 5.48973L45.159 5.15089ZM43.9648 17H43.3203V19H43.9648V17ZM52.1211 1.89844L53.1067 2.06721L53.3069 0.898438H52.1211V1.89844ZM51.5352 5.32031L50.5495 5.15154L50.3494 6.32031H51.5352V5.32031ZM54.3125 5.32031L55.3045 5.44657L55.4478 4.32031H54.3125V5.32031ZM54.2305 5.96484V6.96484H55.1113L55.2225 6.0911L54.2305 5.96484ZM51.418 5.96484V4.96484H50.5761L50.4326 5.7944L51.418 5.96484ZM49.8125 15.2461L48.8271 15.0756L48.8187 15.1243L48.8151 15.1736L49.8125 15.2461ZM49.7656 15.8906L48.7683 15.8181L48.7672 15.8323L48.7666 15.8465L49.7656 15.8906ZM50.0938 17.1445L49.3109 17.7668L49.3189 17.7767L50.0938 17.1445ZM51.1953 17.6016L51.1794 18.6014L51.1874 18.6016H51.1953V17.6016ZM52.4727 17.4961L53.4719 17.4569L53.4298 16.3836L52.3622 16.5022L52.4727 17.4961ZM52.4961 18.0938L52.7485 19.0614L53.5268 18.8583L53.4953 18.0546L52.4961 18.0938ZM49.1445 16.1836L48.1453 16.2228L48.1453 16.2236L49.1445 16.1836ZM49.2266 14.9648L48.241 14.7955L48.2407 14.7974L49.2266 14.9648ZM50.7734 5.96484L51.759 6.13424L51.96 4.96484H50.7734V5.96484ZM48.5117 5.96484L47.5221 5.8209L47.3557 6.96484H48.5117V5.96484ZM48.6055 5.32031V4.32031H47.7404L47.6159 5.17637L48.6055 5.32031ZM50.8906 5.32031V6.32031H51.7339L51.8763 5.48909L50.8906 5.32031ZM51.4766 1.89844V0.898438H50.6332L50.4909 1.72966L51.4766 1.89844ZM51.1354 1.72966L50.5495 5.15154L52.5208 5.48909L53.1067 2.06721L51.1354 1.72966ZM51.5352 6.32031H54.3125V4.32031H51.5352V6.32031ZM53.3205 5.19406L53.2385 5.83859L55.2225 6.0911L55.3045 5.44657L53.3205 5.19406ZM54.2305 4.96484H51.418V6.96484H54.2305V4.96484ZM50.4326 5.7944L48.8271 15.0756L50.7979 15.4165L52.4033 6.13529L50.4326 5.7944ZM48.8151 15.1736L48.7683 15.8181L50.763 15.9632L50.8099 15.3186L48.8151 15.1736ZM48.7666 15.8465C48.7364 16.5302 48.8715 17.2139 49.3109 17.7668L50.8766 16.5223C50.8317 16.4658 50.7479 16.3136 50.7647 15.9347L48.7666 15.8465ZM49.3189 17.7767C49.7979 18.3639 50.4828 18.5904 51.1794 18.6014L51.2112 16.6017C50.9234 16.5971 50.874 16.5189 50.8686 16.5124L49.3189 17.7767ZM51.1953 18.6016C51.4783 18.6016 51.9583 18.5594 52.5831 18.49L52.3622 16.5022C51.7214 16.5734 51.3499 16.6016 51.1953 16.6016V18.6016ZM51.4734 17.5353L51.4969 18.1329L53.4953 18.0546L53.4719 17.4569L51.4734 17.5353ZM52.2437 17.1261C51.9884 17.1927 51.6516 17.2344 51.2188 17.2344V19.2344C51.7703 19.2344 52.285 19.1823 52.7485 19.0614L52.2437 17.1261ZM51.2188 17.2344C50.7194 17.2344 50.5057 17.108 50.4072 17.0106C50.3037 16.9083 50.1651 16.6774 50.1437 16.1436L48.1453 16.2236C48.1787 17.0569 48.4131 17.8515 49.001 18.4328C49.5939 19.019 50.3899 19.2344 51.2188 19.2344V17.2344ZM50.1438 16.1444C50.131 15.8187 50.1531 15.4817 50.2124 15.1323L48.2407 14.7974C48.1594 15.2761 48.1268 15.7516 48.1453 16.2228L50.1438 16.1444ZM50.2121 15.1342L51.759 6.13424L49.7879 5.79545L48.241 14.7955L50.2121 15.1342ZM50.7734 4.96484H48.5117V6.96484H50.7734V4.96484ZM49.5013 6.10878L49.5951 5.46425L47.6159 5.17637L47.5221 5.8209L49.5013 6.10878ZM48.6055 6.32031H50.8906V4.32031H48.6055V6.32031ZM51.8763 5.48909L52.4622 2.06721L50.4909 1.72966L49.905 5.15154L51.8763 5.48909ZM51.4766 2.89844H52.1211V0.898438H51.4766V2.89844ZM60.957 17.4023L61.9409 17.5812L61.9437 17.566L61.946 17.5507L60.957 17.4023ZM61.2031 16.9688L60.5363 16.2235L60.5263 16.2325L60.5165 16.2417L61.2031 16.9688ZM62.2344 17.4492L63.2234 17.5976L63.2252 17.5843L62.2344 17.4492ZM61.9766 17.8828L62.6207 18.6477L62.6322 18.6381L62.6434 18.6281L61.9766 17.8828ZM61.5078 18.0703L61.4644 19.0694L61.4861 19.0703H61.5078V18.0703ZM61.946 17.5507C61.9385 17.6002 61.9222 17.6414 61.9058 17.6704C61.8905 17.6974 61.8802 17.7048 61.8897 17.6958L60.5165 16.2417C60.2507 16.4928 60.0316 16.8304 59.9681 17.254L61.946 17.5507ZM61.8699 17.714C61.8763 17.7083 61.8613 17.7233 61.8228 17.7397C61.7816 17.7572 61.729 17.7695 61.6719 17.7695V15.7695C61.2116 15.7695 60.827 15.9635 60.5363 16.2235L61.8699 17.714ZM61.6719 17.7695C61.6282 17.7695 61.557 17.7601 61.4776 17.7215C61.3979 17.6828 61.3451 17.6316 61.3161 17.5944L62.8948 16.3665C62.5941 15.9799 62.157 15.7695 61.6719 15.7695V17.7695ZM61.3161 17.5944C61.2982 17.5714 61.2722 17.5288 61.2555 17.4683C61.2387 17.4072 61.2383 17.3525 61.2435 17.3141L63.2252 17.5843C63.2861 17.1378 63.1644 16.7131 62.8948 16.3665L61.3161 17.5944ZM61.2454 17.3009C61.2542 17.2428 61.2739 17.1956 61.2928 17.1637C61.3104 17.1342 61.3218 17.1268 61.3098 17.1376L62.6434 18.6281C62.919 18.3814 63.1571 18.0391 63.2233 17.5976L61.2454 17.3009ZM61.3324 17.1179C61.3276 17.122 61.3419 17.1089 61.3767 17.095C61.4135 17.0802 61.4593 17.0703 61.5078 17.0703V19.0703C61.9491 19.0703 62.3265 18.8954 62.6207 18.6477L61.3324 17.1179ZM61.5513 17.0713C61.5819 17.0726 61.6374 17.081 61.7021 17.1125C61.7679 17.1445 61.8161 17.1872 61.8461 17.2237L60.3023 18.4951C60.601 18.8579 61.0159 19.0499 61.4644 19.0694L61.5513 17.0713ZM61.8461 17.2237C61.8758 17.2596 61.9114 17.3184 61.9316 17.3971C61.9516 17.4754 61.9482 17.5411 61.9409 17.5812L59.9732 17.2235C59.8902 17.6797 60.0026 18.1311 60.3023 18.4951L61.8461 17.2237Z" fill="black"/>
</svg>
