<svg width="20" height="20" viewBox="0 0 20 20" fill="none" xmlns="http://www.w3.org/2000/svg">
<g clip-path="url(#clip0)">
<path d="M10.5488 15.1728L19.7738 5.92222C20.0759 5.61913 20.0754 5.12843 19.7723 4.82586C19.4692 4.52351 18.9782 4.5243 18.6759 4.82742L9.99996 13.5274L1.32406 4.82711C1.02172 4.52402 0.531059 4.52324 0.227936 4.82554C0.075983 4.97722 5.72205e-06 5.17593 5.72205e-06 5.37464C5.72205e-06 5.57285 0.0754757 5.77078 0.226374 5.92218L9.45114 15.1728C9.59637 15.3188 9.79403 15.4007 9.99996 15.4007C10.2059 15.4007 10.4033 15.3185 10.5488 15.1728Z" fill="black"/>
</g>
<defs>
<clipPath id="clip0">
<rect width="20" height="20" fill="white" transform="translate(20) rotate(90)"/>
</clipPath>
</defs>
</svg>
